<?xml version="1.0" encoding="utf-8"?>
<!-- Generator: Adobe Illustrator 24.0.0, SVG Export Plug-In . SVG Version: 6.00 Build 0)  -->
<svg version="1.1" id="Layer_1" xmlns="http://www.w3.org/2000/svg" xmlns:xlink="http://www.w3.org/1999/xlink" x="0px" y="0px"
	 viewBox="0 0 89.9 90.8" style="enable-background:new 0 0 89.9 90.8;" xml:space="preserve">
<style type="text/css">
	.st0{fill:#EF84AF;}
</style>
<g>
	<circle class="st0" cx="11" cy="11" r="11"/>
	<circle class="st0" cx="78.9" cy="11" r="11"/>
	<path class="st0" d="M2,54.5c0,0-1.4-10,0.7-13.4c0,0,2.5-6.9,11.7-5.8s9,11.5,9,11.5l0.5,6.5c0,0,1.2,6.6,1.9,7.6
		c0,0,3,12.2,17.5,13.9c14.6,1.6,20.6-13.9,20.6-13.9s2.3-6.1,2.3-13.3s4.4-10.5,4.4-10.5s4.9-3.6,10.1-1.1c0,0,7.2,1.9,7.2,10.8
		L87.8,51c0,0-0.9,13.2-6.5,21.2S69.7,84.1,69.7,84.1s-9.3,6.5-23.1,6.8c-13.8,0.3-22-4.1-22-4.1S13,81.9,6.6,69.4
		c0,0-3.4-7-4.6-13.8L2,54.5z"/>
</g>
</svg>
