<?xml version="1.0" encoding="utf-8"?>
<!-- Generator: Adobe Illustrator 24.0.0, SVG Export Plug-In . SVG Version: 6.00 Build 0)  -->
<svg version="1.1" id="Layer_1" xmlns="http://www.w3.org/2000/svg" xmlns:xlink="http://www.w3.org/1999/xlink" x="0px" y="0px"
	 viewBox="0 0 561.5 146.7" style="enable-background:new 0 0 561.5 146.7;" xml:space="preserve">
<style type="text/css">
	.st0{fill:#EE82AD;}
</style>
<path class="st0" d="M21.7,13.6l1.1,32.2c2.6-3.3,5.2-5.9,7.8-7.8c2.6-1.9,5.4-3.4,8.6-4.5c3.1-1,6.5-1.6,10.2-1.7
	c5.5-0.2,10.4,0.8,14.8,3c4.3,2.2,7.8,5.5,10.4,9.8c1.6,2.5,2.8,5.4,3.4,8.6c0.6,3.2,1,6.9,1.2,11l1.4,41.5c0.1,4.3-0.7,7.7-2.6,9.9
	c-1.9,2.3-4.5,3.5-7.8,3.6c-7.1,0.2-10.9-4-11.2-12.8l-1.3-36.6c-0.2-6.9-1.5-12.2-3.6-15.9c-2.2-3.7-6.2-5.4-11.9-5.2
	c-3.9,0.1-7.3,1.4-10.3,3.7c-3,2.3-5.2,5.4-6.6,9.3c-1.1,3.3-1.4,9-1.2,17.3l1,28.7c0.1,4.3-0.7,7.6-2.6,9.9
	c-1.9,2.3-4.5,3.5-7.9,3.7c-7.1,0.2-10.9-4-11.2-12.8L0,14.3c-0.2-4.4,0.7-7.7,2.5-10c1.8-2.3,4.4-3.5,7.8-3.6
	c3.4-0.1,6.2,0.9,8.2,3.1S21.5,9.3,21.7,13.6z"/>
<path class="st0" d="M220.8,89.3l0.8,18.1c0.2,4.4-0.7,7.7-2.6,10c-2,2.3-4.5,3.5-7.7,3.7c-3.1,0.1-5.7-0.8-7.9-3
	c-2.1-2.1-3.3-5.4-3.5-9.7l-2.8-60.3c-0.5-9.7,2.8-14.8,9.9-15.1c3.6-0.2,6.2,0.9,7.9,3.1c1.7,2.2,2.7,5.5,3.1,10
	c2.4-4.6,4.9-8,7.5-10.5c2.6-2.4,6.2-3.7,10.8-3.9s9,0.7,13.4,2.8c4.4,2.1,6.7,5,6.8,8.7c0.1,2.6-0.7,4.9-2.4,6.7
	c-1.7,1.8-3.7,2.8-5.8,2.9c-0.8,0-2.7-0.4-5.8-1.2c-3.1-0.8-5.8-1.2-8.1-1.1c-3.2,0.1-5.7,1.1-7.7,2.9c-1.9,1.8-3.4,4.3-4.3,7.6
	c-1,3.3-1.5,7.3-1.8,11.8S220.5,82.8,220.8,89.3z"/>
<path class="st0" d="M289.3,114.2v18.1c0,4.4-1,7.7-3.1,9.9c-2.1,2.2-4.7,3.3-7.9,3.3c-3.1,0-5.7-1.1-7.7-3.3c-2-2.2-3-5.5-3-9.9
	V71.9c0-9.7,3.5-14.6,10.6-14.6c3.6,0,6.2,1.1,7.8,3.4c1.6,2.3,2.5,5.6,2.6,10.1c2.6-4.4,5.3-7.8,8-10.1c2.7-2.3,6.4-3.4,10.9-3.4
	c4.6,0,9,1.1,13.3,3.4c4.3,2.3,6.4,5.3,6.4,9.1c0,2.6-0.9,4.8-2.7,6.6c-1.8,1.7-3.8,2.6-5.9,2.6c-0.8,0-2.7-0.5-5.8-1.5
	c-3-1-5.7-1.5-8.1-1.5c-3.2,0-5.8,0.8-7.8,2.5s-3.6,4.1-4.7,7.4c-1.1,3.3-1.9,7.2-2.3,11.7S289.3,107.7,289.3,114.2z"/>
<path class="st0" d="M385.8,109.9c-5.7,3.4-11.1,5.8-16.2,7.3c-5.1,1.4-10.7,1.8-16.7,1c-5.5-0.7-10.2-2.4-14.1-5.1
	c-3.9-2.7-6.8-6-8.6-10.1c-1.8-4-2.4-8.2-1.9-12.6c0.7-5.9,3.2-10.7,7.4-14.4c4.2-3.7,9.7-5.9,16.4-6.5c1.4-0.1,4.9-0.4,10.4-0.9
	c5.6-0.4,10.3-0.9,14.3-1.3c4-0.4,8.3-1.1,13-1.8c0.4-5.7-0.2-10-1.9-12.9c-1.7-2.9-5.7-4.7-12.1-5.5c-5.5-0.7-9.7-0.4-12.6,0.8
	c-2.9,1.2-5.6,3.2-7.9,6c-2.3,2.8-4,4.6-4.9,5.5c-0.9,0.9-2.7,1.1-5.4,0.8c-2.4-0.3-4.4-1.3-6-3.1c-1.6-1.8-2.2-3.9-1.9-6.3
	c0.5-3.8,2.3-7.3,5.4-10.5c3.1-3.2,7.7-5.7,13.6-7.3c6-1.6,13.2-1.9,21.6-0.9c9.5,1.2,16.8,3.2,21.9,6.1c5.1,2.9,8.5,6.9,10.2,12
	c1.6,5.1,2,11.7,1,19.7c-0.6,5-1.2,9.3-1.6,12.8c-0.5,3.5-1,7.4-1.6,11.7c-0.5,4-0.3,8.4,0.5,12.9c0.8,4.6,1.1,7.5,1,8.7
	c-0.3,2.2-1.6,4.1-3.9,5.7c-2.3,1.6-4.8,2.2-7.4,1.9c-2.2-0.3-4.3-1.6-6.2-3.9C389.6,117.5,387.7,114.2,385.8,109.9z M388.2,78.6
	c-3.3,0.8-8,1.4-14.2,2c-6.2,0.6-10.5,1-12.8,1.3c-2.4,0.3-4.7,1.2-7.1,2.7c-2.3,1.5-3.7,3.8-4.1,7c-0.4,3.3,0.5,6.2,2.7,8.8
	s5.3,4.1,9.3,4.6c4.3,0.5,8.3,0.1,12.1-1.4c3.8-1.4,6.8-3.5,8.8-6.2c2.3-3,4-8.3,4.9-15.7L388.2,78.6z"/>
<path class="st0" d="M455.1,37.5l-1.5,32.1c2.9-3,5.7-5.4,8.4-7.2c2.7-1.7,5.7-3,8.9-3.8c3.2-0.8,6.7-1.1,10.3-0.9
	c5.5,0.3,10.3,1.7,14.5,4.2c4.1,2.5,7.3,6.1,9.6,10.6c1.4,2.7,2.3,5.6,2.7,8.8c0.4,3.2,0.5,6.9,0.3,11.1l-2,41.5
	c-0.2,4.3-1.4,7.6-3.4,9.7s-4.8,3.1-8.1,3c-7.1-0.3-10.5-4.9-10.1-13.7l1.7-36.6c0.3-6.9-0.5-12.3-2.3-16.1
	c-1.9-3.8-5.7-5.9-11.5-6.2c-3.9-0.2-7.4,0.8-10.6,2.8c-3.2,2-5.7,4.9-7.4,8.7c-1.3,3.2-2.2,8.9-2.6,17.1l-1.4,28.6
	c-0.2,4.3-1.3,7.5-3.4,9.7c-2,2.2-4.8,3.2-8.2,3c-7.1-0.3-10.5-4.9-10.1-13.7l4.5-94c0.2-4.4,1.3-7.6,3.3-9.7c2-2.1,4.7-3.1,8.1-2.9
	c3.4,0.2,6.1,1.4,7.9,3.7S455.3,33.1,455.1,37.5z"/>
<path class="st0" d="M536.5,67.1l0.6-38.1c0.1-7.4,0.4-12.8,0.6-16c0.4-4.4,1.8-7.7,4.3-10c2.5-2.3,5.6-3.2,9.4-2.9
	c4.5,0.4,7.4,2.2,8.7,5.5c1.3,3.3,1.7,7.9,1.2,13.8c-0.3,3.5-0.8,7-1.4,10.6l-6.7,38.7c-0.8,4.6-1.8,8.1-3.3,10.5
	c-1.4,2.4-3.5,3.5-6.3,3.2c-2.9-0.2-4.7-1.6-5.6-4.1C537,75.7,536.5,72,536.5,67.1z M540.9,119.9c-3.2-0.3-5.9-1.5-8.2-3.8
	c-2.2-2.3-3.2-5.3-2.9-9.1c0.3-3.3,1.7-6,4.1-8.1c2.5-2.1,5.4-3,8.7-2.7c3.3,0.3,6.1,1.7,8.2,4.2c2.2,2.5,3.1,5.4,2.8,8.6
	c-0.3,3.7-1.7,6.5-4.3,8.4C546.9,119.3,544.1,120.1,540.9,119.9z"/>
<g>
	<circle class="st0" cx="104.7" cy="65.6" r="11"/>
	<circle class="st0" cx="172.5" cy="65.6" r="11"/>
	<path class="st0" d="M95.6,109.2c0,0-1.4-10,0.7-13.4c0,0,2.5-6.9,11.7-5.8s9,11.5,9,11.5l0.5,6.5c0,0,1.2,6.6,1.9,7.6
		c0,0,3,12.2,17.5,13.9c14.6,1.6,20.6-13.9,20.6-13.9s2.3-6.1,2.3-13.3c-0.1-7.2,4.4-10.5,4.4-10.5s4.9-3.6,10.1-1.1
		c0,0,7.2,1.9,7.2,10.8l-0.1,4.3c0,0-0.9,13.2-6.5,21.2s-11.5,11.8-11.5,11.8s-9.3,6.5-23.1,6.8c-13.8,0.3-22-4.1-22-4.1
		s-11.6-4.9-18-17.4c0,0-3.4-7-4.6-13.8L95.6,109.2z"/>
</g>
</svg>
