
<svg x="0px" y="0px" width="960px" height="100px" viewBox="0 0 960 100" enable-background="new 0 0 960 100" xml:space="preserve">
<g>
	<path fill="#FFFFFF" d="M839.9,36.318c0,2.057,0.223,3.726,0.611,4.949c0.445,1.223,1.002,2.559,1.781,4.004
		c0.277,0.445,0.389,0.891,0.389,1.279c0,0.557-0.334,1.111-1.057,1.668l-3.504,2.336c-0.5,0.334-1.002,0.502-1.445,0.502
		c-0.557,0-1.113-0.279-1.67-0.779c-0.777-0.834-1.445-1.725-2.002-2.615c-0.557-0.945-1.111-2.002-1.725-3.279
		c-4.338,5.115-9.789,7.674-16.352,7.674c-4.67,0-8.398-1.334-11.123-4.004s-4.115-6.229-4.115-10.679
		c0-4.727,1.668-8.564,5.061-11.457c3.395-2.893,7.898-4.339,13.627-4.339c1.891,0,3.838,0.168,5.896,0.445
		c2.057,0.278,4.17,0.724,6.395,1.224v-4.06c0-4.228-0.891-7.175-2.613-8.898c-1.779-1.725-4.783-2.559-9.066-2.559
		c-1.947,0-3.949,0.223-6.006,0.723c-2.059,0.501-4.061,1.112-6.008,1.891c-0.889,0.39-1.557,0.612-1.945,0.724
		c-0.391,0.111-0.668,0.167-0.891,0.167c-0.779,0-1.168-0.556-1.168-1.725V6.785c0-0.891,0.111-1.558,0.389-1.946
		c0.279-0.391,0.779-0.779,1.559-1.169c1.945-1.001,4.281-1.835,7.008-2.502c2.725-0.724,5.617-1.058,8.676-1.058
		c6.619,0,11.457,1.502,14.572,4.506c3.059,3.003,4.615,7.563,4.615,13.682v18.021H839.9z M817.32,44.771
		c1.836,0,3.727-0.334,5.729-1.002s3.781-1.891,5.283-3.559c0.891-1.058,1.559-2.225,1.891-3.56
		c0.334-1.335,0.557-2.948,0.557-4.839v-2.336c-1.613-0.39-3.336-0.724-5.117-0.945c-1.779-0.223-3.504-0.334-5.227-0.334
		c-3.727,0-6.451,0.724-8.287,2.225c-1.836,1.502-2.727,3.615-2.727,6.396c0,2.614,0.668,4.561,2.059,5.895
		C812.814,44.104,814.762,44.771,817.32,44.771z M861.98,50.777c-1,0-1.668-0.166-2.113-0.557c-0.445-0.334-0.834-1.111-1.168-2.168
		l-13.07-42.992c-0.334-1.112-0.5-1.836-0.5-2.225c0-0.89,0.445-1.391,1.336-1.391h5.449c1.057,0,1.779,0.167,2.17,0.557
		c0.445,0.333,0.777,1.112,1.111,2.169l9.344,36.818l8.676-36.818c0.279-1.112,0.613-1.836,1.057-2.169
		c0.445-0.334,1.225-0.557,2.227-0.557h4.449c1.055,0,1.779,0.167,2.225,0.557c0.445,0.333,0.834,1.112,1.055,2.169l8.789,37.264
		l9.621-37.264c0.334-1.112,0.723-1.836,1.113-2.169c0.445-0.334,1.168-0.557,2.168-0.557h5.172c0.891,0,1.391,0.445,1.391,1.391
		c0,0.278-0.055,0.557-0.109,0.89c-0.057,0.334-0.168,0.779-0.391,1.391l-13.404,42.991c-0.332,1.113-0.723,1.836-1.166,2.17
		c-0.445,0.334-1.17,0.557-2.113,0.557h-4.785c-1.055,0-1.779-0.168-2.225-0.557c-0.443-0.391-0.834-1.113-1.057-2.225
		l-8.621-35.873l-8.564,35.816c-0.277,1.113-0.611,1.836-1.057,2.225c-0.445,0.391-1.223,0.557-2.225,0.557H861.98z M933.449,52.279
		c-2.893,0-5.785-0.334-8.564-1.002c-2.781-0.666-4.951-1.391-6.396-2.225c-0.891-0.5-1.502-1.057-1.725-1.557
		s-0.334-1.057-0.334-1.557v-2.838c0-1.166,0.445-1.723,1.279-1.723c0.334,0,0.668,0.056,1.002,0.167s0.834,0.333,1.391,0.556
		c1.891,0.834,3.947,1.502,6.117,1.945c2.225,0.445,4.395,0.668,6.619,0.668c3.504,0,6.229-0.611,8.119-1.834
		c1.891-1.224,2.893-3.004,2.893-5.284c0-1.558-0.5-2.837-1.502-3.894c-1.002-1.056-2.893-2.002-5.617-2.892l-8.064-2.503
		c-4.061-1.278-7.063-3.17-8.898-5.673c-1.836-2.447-2.781-5.173-2.781-8.064c0-2.336,0.5-4.394,1.502-6.174
		c1-1.779,2.336-3.337,4.004-4.56c1.67-1.28,3.561-2.226,5.785-2.893C930.502,0.277,932.838,0,935.283,0
		c1.225,0,2.504,0.055,3.729,0.222c1.279,0.167,2.445,0.39,3.615,0.612c1.111,0.277,2.168,0.556,3.17,0.89
		c1,0.333,1.779,0.668,2.336,1.001c0.777,0.445,1.334,0.891,1.668,1.391c0.334,0.445,0.5,1.057,0.5,1.835v2.614
		c0,1.168-0.445,1.779-1.277,1.779c-0.445,0-1.17-0.222-2.115-0.667c-3.17-1.445-6.729-2.169-10.678-2.169
		c-3.172,0-5.674,0.501-7.398,1.558c-1.723,1.057-2.613,2.669-2.613,4.95c0,1.557,0.557,2.892,1.668,3.948
		c1.113,1.057,3.17,2.113,6.119,3.059l7.896,2.503c4.006,1.279,6.898,3.06,8.621,5.339c1.725,2.281,2.559,4.895,2.559,7.787
		c0,2.392-0.5,4.561-1.445,6.45c-1.002,1.893-2.336,3.561-4.061,4.895c-1.725,1.391-3.783,2.393-6.174,3.115
		C938.9,51.889,936.285,52.279,933.449,52.279z"/>
	<g>
		<path fill="#FFFFFF" d="M943.961,79.309C925.662,92.824,899.078,100,876.219,100c-32.035,0-60.9-11.848-82.703-31.537
			c-1.725-1.557-0.166-3.67,1.891-2.447c23.582,13.684,52.67,21.969,82.76,21.969c20.301,0,42.602-4.227,63.125-12.902
			C944.35,73.691,946.965,77.084,943.961,79.309z"/>
		<path fill="#FFFFFF" d="M951.58,70.633c-2.336-3.004-15.461-1.445-21.412-0.723c-1.779,0.223-2.059-1.334-0.445-2.502
			c10.457-7.342,27.643-5.229,29.645-2.781c2.002,2.502-0.557,19.688-10.344,27.92c-1.504,1.279-2.949,0.611-2.281-1.057
			C948.967,85.982,953.916,73.58,951.58,70.633z"/>
	</g>
</g>
<path fill="#FFFFFF" d="M0,0l45.267,0.144l12.985,22.169L71.234,0.144l44.989-0.143L58.262,100L0,0z M115.302,0.579L93.174,0.598
	L58.242,60.572L23.328,0.598L0.855,0.58l57.396,97.963L115.302,0.579z"/>
<path fill="#FFFFFF" d="M379.385,22.623c0.036,0.134,0.056,0.271,0.056,0.409v21.463c0,0.561-0.302,1.08-0.787,1.359l-18.016,10.371
	v20.559c0,0.561-0.299,1.076-0.784,1.357L322.248,99.79c-0.086,0.051-0.18,0.08-0.275,0.115c-0.034,0.012-0.066,0.033-0.103,0.043
	c-0.264,0.068-0.541,0.068-0.803,0c-0.044-0.012-0.084-0.035-0.124-0.051c-0.086-0.031-0.176-0.059-0.258-0.107l-37.599-21.648
	c-0.487-0.279-0.787-0.795-0.787-1.357V12.391c0-0.142,0.02-0.278,0.054-0.41c0.014-0.044,0.04-0.086,0.058-0.132
	c0.026-0.081,0.056-0.165,0.099-0.241c0.029-0.054,0.073-0.092,0.107-0.142c0.046-0.061,0.086-0.126,0.138-0.179
	c0.046-0.046,0.105-0.081,0.156-0.119c0.056-0.046,0.107-0.098,0.172-0.134l0,0L301.887,0.21c0.483-0.279,1.079-0.279,1.563,0
	l18.801,10.824h0.004c0.063,0.038,0.116,0.088,0.174,0.132c0.05,0.04,0.107,0.075,0.151,0.117c0.055,0.057,0.093,0.122,0.141,0.183
	c0.033,0.05,0.079,0.088,0.105,0.142c0.046,0.076,0.07,0.16,0.104,0.241c0.015,0.046,0.042,0.088,0.053,0.134
	c0.036,0.134,0.054,0.271,0.054,0.408v40.22l15.668-9.021V23.028c0-0.136,0.02-0.275,0.056-0.405
	c0.013-0.048,0.038-0.088,0.053-0.134c0.031-0.082,0.06-0.166,0.104-0.242c0.028-0.052,0.072-0.092,0.105-0.14
	c0.048-0.061,0.086-0.126,0.14-0.182c0.045-0.044,0.103-0.078,0.152-0.116c0.06-0.048,0.111-0.1,0.172-0.136h0.004l18.801-10.824
	c0.483-0.279,1.082-0.279,1.564,0l18.802,10.824c0.066,0.04,0.116,0.088,0.176,0.132c0.05,0.04,0.104,0.076,0.15,0.118
	c0.054,0.058,0.094,0.123,0.142,0.184c0.034,0.048,0.078,0.088,0.105,0.14c0.044,0.076,0.07,0.16,0.101,0.242
	C379.349,22.535,379.373,22.575,379.385,22.623z M376.307,43.589V25.741l-6.579,3.785l-9.09,5.236V52.61L376.307,43.589
	L376.307,43.589z M357.504,75.88V58.017l-8.939,5.107l-25.529,14.57v18.031L357.504,75.88z M285.434,15.1v60.78l34.469,19.842
	V77.696l-18.009-10.191l-0.003-0.004l-0.01-0.004c-0.06-0.035-0.111-0.086-0.168-0.127c-0.048-0.041-0.105-0.072-0.147-0.115
	l-0.004-0.006c-0.054-0.047-0.088-0.107-0.13-0.164c-0.04-0.051-0.088-0.098-0.118-0.152l-0.002-0.006
	c-0.034-0.057-0.056-0.131-0.082-0.195c-0.025-0.059-0.058-0.113-0.073-0.176v-0.004c-0.021-0.072-0.024-0.152-0.032-0.229
	c-0.008-0.057-0.024-0.115-0.024-0.176v-0.004V24.121l-9.087-5.234l-6.579-3.783V15.1z M302.67,3.373l-15.666,9.018l15.662,9.018
	l15.662-9.02l-15.662-9.016H302.67z M310.815,59.644l9.087-5.23V15.1l-6.58,3.787l-9.088,5.234v39.313L310.815,59.644z
	 M359.072,14.015l-15.664,9.018l15.664,9.016l15.66-9.02L359.072,14.015z M357.504,34.763l-9.088-5.236l-6.578-3.785v17.848
	l9.087,5.232l6.579,3.789V34.763z M321.465,74.985L344.44,61.87l11.481-6.555l-15.65-9.01l-18.02,10.373l-16.423,9.457
	L321.465,74.985z"/>
<g>
	<path fill="#FFFFFF" d="M645.938,77.072L605.409,100V82.146l25.252-13.895L645.938,77.072L645.938,77.072z M648.714,74.562V26.62
		l-14.824,8.568v30.818L648.714,74.562L648.714,74.562z M561.32,77.072L601.849,100V82.146l-25.266-13.895L561.32,77.072
		L561.32,77.072z M558.544,74.562V26.62l14.824,8.568v30.818L558.544,74.562z M560.284,23.512L601.849,0v17.256l-26.634,14.652
		l-0.212,0.118L560.284,23.512L560.284,23.512z M646.974,23.512L605.409,0v17.256l26.634,14.638l0.213,0.12L646.974,23.512
		L646.974,23.512z"/>
	<path fill="#FFFFFF" d="M601.849,78.082l-24.92-13.709V37.234l24.92,14.387V78.082z M605.409,78.082l24.921-13.695V37.234
		l-24.921,14.387V78.082z M578.615,34.1l25.014-13.749L628.643,34.1l-25.014,14.439L578.615,34.1z"/>
</g>
</svg>
